<?xml version="1.0" standalone="no"?>
<!DOCTYPE svg PUBLIC "-//W3C//DTD SVG 20010904//EN"
 "http://www.w3.org/TR/2001/REC-SVG-20010904/DTD/svg10.dtd">
<svg version="1.0" xmlns="http://www.w3.org/2000/svg"
 width="101.000000pt" height="101.000000pt" viewBox="0 0 101.000000 101.000000"
 preserveAspectRatio="xMidYMid meet">
<metadata>
Created by potrace 1.11, written by Peter Selinger 2001-2013
</metadata>
<g transform="translate(0.000000,101.000000) scale(0.100000,-0.100000)"
fill="#000000" stroke="none">
<path d="M0 505 l0 -505 505 0 505 0 0 505 0 505 -505 0 -505 0 0 -505z m644
357 c2 -4 -4 -111 -14 -236 -13 -164 -22 -231 -32 -237 -20 -13 -216 -11 -224
2 -7 11 -33 337 -34 421 0 36 4 48 18 51 31 8 281 7 286 -1z m-26 -648 l3 -91
-47 -7 c-78 -10 -199 -7 -212 6 -13 13 -17 143 -6 172 5 14 24 16 133 14 l126
-3 3 -91z"/>
</g>
</svg>
